<?xml version="1.0" encoding="utf-8"?>
<!-- Generator: Adobe Illustrator 22.0.1, SVG Export Plug-In . SVG Version: 6.00 Build 0)  -->
<svg version="1.1" id="Capa_1" xmlns="http://www.w3.org/2000/svg" xmlns:xlink="http://www.w3.org/1999/xlink" x="0px" y="0px"
	 viewBox="0 0 127.4 326.4" style="enable-background:new 0 0 127.4 326.4;" xml:space="preserve">
<style type="text/css">
	.st0{opacity:0.5;}
	.st1{fill:#FFFFFF;}
	.st2{fill:none;stroke:#FFFFFF;stroke-width:3;stroke-miterlimit:10;}
</style>
<g class="st0">
	<g>
		<g>
			<path class="st1" d="M87.1,38c0,0.5,0,1,0,1.5c0,7.1,0,14.1,0,21.2c0,0.6,0,1.2,0,1.7c0,1.2-0.7,1.9-1.9,1.9c-4.3,0-8.7,0-13,0
				c-0.6,0-1.2,0-1.7-0.2c-1.2-0.3-2.1-1.3-2.2-2.6c-0.1-1.2,0-2.3,0-3.5c0-3.4,0-6.8,0-10.3c0-1.4,0-2.7,0-4.1c0-0.1,0-0.3,0-0.4
				c-3.4,0-6.7,0-10.1,0c0,0.1,0,0.3,0,0.4c0,5.8,0,11.6,0,17.4c0,1.8-1.3,3.1-3.1,3.1c-4.7,0-9.4,0-14.1,0c-1,0-1.7-0.7-1.7-1.7
				c0-0.1,0-0.2,0-0.3c0-8,0-15.9,0-23.9c0-0.1,0-0.2,0-0.4c-0.1,0-0.2,0-0.2,0c-1.3,0-2.6,0-3.9,0c-0.7,0-1.2-0.3-1.5-0.9
				c-0.3-0.6-0.2-1.2,0.4-1.7c1.6-1.6,3.3-3.3,4.9-4.9c1.7-1.7,3.4-3.4,5.2-5.1c1.7-1.7,3.5-3.5,5.2-5.2c4.2-4.2,8.4-8.4,12.6-12.6
				c0.6-0.6,2-0.7,2.7,0c6.4,6.5,12.9,12.9,19.3,19.3c2.9,2.9,5.7,5.7,8.6,8.5c0.9,0.9,0.6,2.3-0.5,2.6C91.7,38,91.5,38,91.4,38
				c-1.3,0-2.7,0-4,0C87.3,38,87.2,38,87.1,38z M71.2,40.3c0,7,0,14,0,21c4.3,0,8.6,0,12.9,0c0-0.1,0-0.3,0-0.4c0-6.2,0-12.4,0-18.5
				c0-2,0-3.9,0-5.9c0-0.8,0.6-1.5,1.4-1.5c0.6,0,1.3,0,1.9,0c0.1,0,0.2,0,0.3,0c-8.2-8.2-16.4-16.4-24.5-24.5
				C55,18.6,46.8,26.8,38.6,35c0.7,0,1.3,0,2,0c1,0,1.6,0.6,1.6,1.6c0,8.1,0,16.2,0,24.3c0,0.1,0,0.3,0,0.4c4.3,0,8.6,0,13,0
				c0-7,0-14,0-21C60.5,40.3,65.8,40.3,71.2,40.3z"/>
		</g>
	</g>
	<g>
		<g>
			<path class="st1" d="M63.2,99.6L63.2,99.6c0.6,0,1.2,0,1.9,0.1c2.5,0.3,4.9,1.1,7,2.4c2.1,1.3,3.9,3,5.3,5.1c0.8,1.3,1.5,2.6,2,4
				c0.4,1.2,0.7,2.6,0.8,3.9c0.1,1.4,0.1,2.7-0.1,3.9c-0.4,2.3-0.9,4-1.8,5.4c-0.6,1-1.2,2.1-1.8,3.1c-0.7,1.2-1.4,2.4-2.1,3.5
				c-1,1.6-2,3.3-3,4.9l-0.5,0.7c-1.7,2.7-3.5,5.5-5.2,8.2c-0.8,1.3-1.6,2.5-2.4,3.8l0,0c-0.7-1.1-1.4-2.1-2.1-3.2
				c-1.3-2-2.5-4-3.8-6l-0.4-0.7l-0.7-1.1c-0.8-1.2-1.5-2.4-2.3-3.7c-1.4-2.3-2.9-4.7-4.4-7.3c-0.6-1-1.2-2.1-1.8-3.1
				c-0.6-1-0.9-2.3-1.2-3.8c-0.3-1.3-0.4-2.7-0.3-4.2c0.1-1.9,0.5-3.7,1.2-5.4c0.8-2.1,2.1-4,3.7-5.7c1.2-1.2,2.6-2.2,4.1-3.1
				c1.7-0.9,3.4-1.5,5.3-1.8C61.3,99.7,62.2,99.6,63.2,99.6 M63.2,128.4L63.2,128.4L63.2,128.4c3.2,0,6.2-1.3,8.4-3.5
				c2.2-2.3,3.4-5.3,3.4-8.5c-0.1-6.4-5.4-11.6-11.8-11.6c-3.2,0-6.1,1.2-8.4,3.5c-2.2,2.2-3.5,5.2-3.4,8.3c0,3.1,1.3,6.2,3.5,8.4
				C57,127.2,60,128.4,63.2,128.4 M63.2,96.6c-1.1,0-2.1,0.1-3.2,0.3c-2.2,0.3-4.2,1-6.2,2.1c-1.8,1-3.4,2.2-4.8,3.6
				c-1.9,1.9-3.3,4.1-4.3,6.6c-0.8,2-1.3,4.2-1.4,6.4c-0.1,1.7,0,3.3,0.4,5c0.3,1.6,0.7,3.2,1.5,4.6c0.6,1.1,1.2,2.2,1.8,3.2
				c1.5,2.4,2.9,4.9,4.4,7.3c1,1.6,2,3.2,3,4.8c1.4,2.2,2.8,4.5,4.2,6.7c1.2,1.8,2.3,3.6,3.5,5.4c0.4,0.6,0.7,1.1,1.1,1.7
				c0.1-0.1,0.1-0.2,0.2-0.3c0.4-0.7,0.9-1.4,1.3-2.1c1.2-1.8,2.3-3.6,3.5-5.4c1.7-2.7,3.5-5.5,5.2-8.2c1.2-1.9,2.4-3.8,3.5-5.7
				c1.3-2.2,2.6-4.4,3.9-6.6c1.2-2,1.8-4.2,2.1-6.5c0.2-1.5,0.3-3.1,0.1-4.7c-0.1-1.6-0.4-3.1-0.9-4.6c-0.6-1.7-1.3-3.2-2.3-4.7
				c-1.6-2.4-3.7-4.4-6.2-6c-2.5-1.6-5.3-2.5-8.3-2.8C64.6,96.6,63.9,96.6,63.2,96.6L63.2,96.6z M63.2,125.4c-5.1,0-8.8-4.1-8.8-8.8
				c0-4.9,4-8.8,8.8-8.8c0,0,0,0,0,0c4.9,0,8.7,4,8.8,8.6C72.1,121.5,68.1,125.4,63.2,125.4C63.2,125.4,63.2,125.4,63.2,125.4
				L63.2,125.4z"/>
		</g>
	</g>
	<g>
		<g id="Icono_de_acerca_de_1_">
			<g>
				<path class="st1" d="M63.2,189.7L63.2,189.7L63.2,189.7c10.9,0,19.7,8.9,19.6,19.7L82.7,229l-19.6-0.1
					c-10.8,0-19.6-8.9-19.5-19.7C43.6,198.5,52.4,189.7,63.2,189.7 M63.2,186.7c-12.4,0-22.6,10.1-22.6,22.5
					c0,12.5,10,22.6,22.5,22.7c5.9,0,22.6,0.1,22.6,0.1s0.1-16.1,0.1-22.6C85.8,196.9,75.7,186.8,63.2,186.7
					C63.2,186.7,63.2,186.7,63.2,186.7L63.2,186.7z"/>
			</g>
		</g>
		<g>
			<g>
				<path class="st1" d="M60.4,222.6c0-0.4,0.1-0.7,0.2-1.1c0.1-0.3,0.3-0.6,0.6-0.9c0.2-0.3,0.5-0.5,0.9-0.6
					c0.3-0.1,0.7-0.2,1.1-0.2c0.4,0,0.7,0.1,1.1,0.2c0.3,0.1,0.6,0.3,0.9,0.6c0.3,0.3,0.4,0.5,0.6,0.9c0.1,0.3,0.2,0.7,0.2,1.1
					c0,0.4-0.1,0.8-0.2,1.1c-0.1,0.3-0.3,0.6-0.6,0.9c-0.3,0.3-0.5,0.4-0.9,0.6s-0.7,0.2-1.1,0.2c-0.4,0-0.7-0.1-1.1-0.2
					s-0.6-0.3-0.9-0.6c-0.2-0.3-0.4-0.5-0.6-0.9C60.5,223.4,60.4,223,60.4,222.6z M65.1,193.3V206c0,0.7,0,1.3,0,2
					c0,0.6-0.1,1.3-0.1,1.9c0,0.6-0.1,1.3-0.2,2c-0.1,0.7-0.1,1.4-0.2,2.2h-2.7c-0.1-0.8-0.2-1.5-0.2-2.2c-0.1-0.7-0.1-1.3-0.2-2
					c0-0.6-0.1-1.3-0.1-1.9s0-1.3,0-2v-12.7H65.1z"/>
			</g>
		</g>
	</g>
	<g>
		<circle class="st2" cx="22.3" cy="312.1" r="9.8"/>
		<circle class="st2" cx="43.4" cy="312.1" r="9.8"/>
		<circle class="st2" cx="102.1" cy="312.1" r="9.8"/>
		<path class="st2" d="M124.3,287.6h-19.5v-14.1H77.4v10.8c-2.4-6.3-8.6-10.8-15.7-10.8H18.9C9.6,273.5,2,281,2,290.3
			s7.5,16.8,16.8,16.8H59v1.5h9.7v5.1h9.7v-5.1h45.8V287.6z M77.4,296.4v7.9l-6.7,0.3C73.7,302.6,76.1,299.8,77.4,296.4z"/>
		<rect x="89.1" y="277.9" class="st2" width="9.5" height="9.5"/>
		<g>
			<path class="st1" d="M4.7,292.7c4.8-0.3,9.5,0.8,13.7,3.3c2,1.2,3.8,2.6,6,3.3c2.1,0.6,4.4,0.6,6.6,0.5c2.3-0.1,4.7-0.4,7.1,0
				c2.2,0.4,4.3,1.2,6.3,2.2c4,1.9,7.8,4.3,12.1,5.5c0.2-1.3,0.3-2.5,0.5-3.8c-11.4,1-22.8-0.3-33.6-4c-2.4-0.8-3.4,2.9-1,3.7
				c11.1,3.8,22.9,5.2,34.6,4.2c2.1-0.2,2.7-3.2,0.5-3.8c-4.5-1.3-8.4-4-12.7-5.9c-4.3-1.9-8.3-2.3-13-2c-2.3,0.1-4.8,0.3-7-0.5
				c-2.3-0.9-4.1-2.6-6.3-3.7c-4.3-2.1-9-3-13.7-2.8C2.3,288.9,2.3,292.8,4.7,292.7L4.7,292.7z"/>
		</g>
		<g>
			<path class="st1" d="M24.7,300.3c-0.7-3.3-3.6-4.7-6.4-5.9c-3.5-1.5-7-2.9-10.6-4.1c-2.9-1-4.7,2.4-3.6,4.7
				c3,6.7,9.5,10,16.6,10.6c3.8,0.3,7.6-0.1,11.4-0.1c4.2,0,8.4,0.3,12.6,0.8c1.7,0.2,3.2-1.6,3.2-3.2c0-1.9-1.5-3-3.2-3.2
				c-7.1-0.8-14-0.5-21.1-0.6c-6,0-11.4-1.7-14-7.5c-1.2,1.6-2.4,3.2-3.6,4.7c2.6,0.9,5.1,1.8,7.6,2.9c1.1,0.5,4.6,1.4,4.9,2.7
				C19.4,306.1,25.7,304.4,24.7,300.3L24.7,300.3z"/>
		</g>
		<g>
			<path class="st1" d="M33.3,301.3c-4.5-0.2-9-0.5-13.4-1.4c-3.4-0.7-7.3-2-8.2-5.8c-0.9-4.1-7.1-2.3-6.2,1.7
				c1.1,5.2,5.7,8.4,10.5,9.8c5.5,1.6,11.6,1.9,17.2,2.2C37.5,307.9,37.4,301.4,33.3,301.3L33.3,301.3z"/>
		</g>
		<g>
			<path class="st1" d="M6,298.8c0.6,0.4,1.3,1,2,1.8c0.4,0.4,0.7,0.7,1,1.1c0.1,0.1,0.3,0.4,0.1,0.1c0.2,0.3,0.4,0.5,0.6,0.8
				c1,1.4,2.9,2.1,4.4,1.2c1.4-0.9,2.2-2.9,1.2-4.4c-1.7-2.4-3.7-4.4-6.1-6.2c-1.4-1-3.7-0.3-4.4,1.2C3.9,296,4.5,297.8,6,298.8
				L6,298.8z"/>
		</g>
		<g>
			<path class="st1" d="M5.3,299.4c6.7,10.2,19.2,7,29.4,8.4c1.7,0.2,3.2-1.6,3.2-3.2c0-1.9-1.5-3-3.2-3.2c-7.1-0.9-19,2.1-23.8-5.2
				C8.6,292.7,3,295.9,5.3,299.4L5.3,299.4z"/>
		</g>
		<g>
			<path class="st1" d="M57.9,305.5c0.6,0.3,1.1,0.8,1.6,1.3c0.1-0.4,0.2-0.7,0.3-1.1c-0.5,0.1-0.9,0.1-1.4,0
				c-0.8-0.2-1.2,1.1-0.3,1.2c0.7,0.2,1.4,0.2,2.1,0c0.5-0.1,0.6-0.7,0.3-1.1c-0.5-0.6-1.1-1.1-1.8-1.5
				C57.8,304,57.1,305.1,57.9,305.5L57.9,305.5z"/>
		</g>
		<g>
			<path class="st1" d="M60.6,306.6c-0.3-1.7-1.5-2.5-3.1-2.8c-2.6-0.6-5.4-0.8-8-1.2c-0.8-0.1-1.2,1.1-0.3,1.2
				c1.7,0.2,3.4,0.5,5.2,0.7c1.6,0.2,4.7,0.1,5.1,2.3C59.5,307.7,60.7,307.4,60.6,306.6L60.6,306.6z"/>
		</g>
		<g>
			<path class="st1" d="M60.6,306.2c-1-1.5-2.6-1.5-4.3-1.5c-3.1,0-6.3,0-9.4,0c-0.8,0-0.8,1.3,0,1.3c2.1,0,4.3,0,6.4,0
				c1.6,0,5.2-0.6,6.2,0.8C59.9,307.6,61.1,306.9,60.6,306.2L60.6,306.2z"/>
		</g>
	</g>
</g>
</svg>
